<svg xmlns="http://www.w3.org/2000/svg" viewBox="0 0 83 83"><defs><style>.cls-1,.cls-4{fill:none;}.cls-1,.cls-2{stroke:#275af2;}.cls-1,.cls-2,.cls-4,.cls-5{stroke-linecap:round;stroke-linejoin:round;stroke-width:3px;}.cls-2{fill:#fff;}.cls-3,.cls-5{fill:#275af2;}.cls-4,.cls-5{stroke:#fff;}</style></defs><title>Lumenaut</title><g id="Helmet"><path class="cls-1" d="M41.39,1.5A40,40,0,1,0,69.68,69.78L41.39,41.5Z"/><path class="cls-2" d="M41.39,7.5a34,34,0,1,1-34,34,34,34,0,0,1,34-34"/><path class="cls-3" d="M65.43,65.54a34,34,0,1,1-24-58v34Z"/><path class="cls-1" d="M52.45,14.8a28.86,28.86,0,0,1,9.76,6.45"/><line class="cls-4" x1="20.58" y1="61.75" x2="20.58" y2="61.75"/><path class="cls-4" d="M30.33,68.2a28.86,28.86,0,0,1-5.67-3"/><line class="cls-4" x1="41.39" y1="41.5" x2="25.39" y2="25.5"/><circle class="cls-5" cx="41.39" cy="41.5" r="9"/><circle class="cls-5" cx="25.39" cy="25.5" r="3"/></g></svg>